<?xml version="1.0" encoding="utf-8"?>
<svg version="1.1" xmlns:xlink="http://www.w3.org/1999/xlink" width="100px" height="60px" xmlns="http://www.w3.org/2000/svg">
  <g transform="matrix(1 0 0 1 -728 -672 )">
    <path d="M 729 682  A 9 9 0 0 1 738 673 L 818 673  A 9 9 0 0 1 827 682 L 827 722  A 9 9 0 0 1 818 731 L 738 731  A 9 9 0 0 1 729 722 L 729 682  Z " fill-rule="nonzero" fill="#ffffff" stroke="none" />
    <path d="M 728.5 682  A 9.5 9.5 0 0 1 738 672.5 L 818 672.5  A 9.5 9.5 0 0 1 827.5 682 L 827.5 722  A 9.5 9.5 0 0 1 818 731.5 L 738 731.5  A 9.5 9.5 0 0 1 728.5 722 L 728.5 682  Z " stroke-width="1" stroke-dasharray="9,4" stroke="#797979" fill="none" stroke-dashoffset="0.5" />
  </g>
</svg>