<?xml version="1.0" encoding="utf-8"?>
<svg version="1.1" xmlns:xlink="http://www.w3.org/1999/xlink" width="17px" height="13px" xmlns="http://www.w3.org/2000/svg">
  <g transform="matrix(1 0 0 1 -539 -315 )">
    <path d="M 16.0397627681151 10.3543380046966  C 15.723606485149 10.4137451855982  15.4221508891524 10.5287495316548  15.1511614528916 10.6933365654117  C 14.8855871910481 10.9560285995878  14.550292910077 11.1469782108507  14.1800457255239 11.2463855768502  C 14.2294106078299 10.9339680327248  14.3937373240735 10.648809029619  14.6419826685514 10.438083175517  C 14.8498590544647 10.1390247745273  14.9995929727396 9.80747499228414  15.0841770020282 9.45895007953943  C 15.0841754583522 9.45829036803031  15.0841746865135 9.45763065511701  15.0841746865135 9.45697094200342  C 15.0841746865135 8.96136539255418  15.5104332844402 8.55959771270262  16.0362499123755 8.55959771270262  C 16.5620665403108 8.55959771270262  16.9883251382374 8.96136539255418  16.9883251382374 9.45697094200342  C 16.9883251382374 9.95127779862018  16.5642146506145 10.352505489903  16.0397794849733 10.3543380046966  Z M 14.297849425358 8.20527778198621  C 13.9820409696599 8.00795842929957  13.6314603151453 7.86524995436788  13.2625409624485 7.78384183016438  C 12.7367243345133 7.78384183016438  12.3104657365866 7.38207415031282  12.3104657365866 6.88646860086357  C 12.3104657365866 6.39086305141432  12.7367243345133 5.98909537156276  13.2625409624485 5.98909537156276  C 13.7883575903838 5.98909537156276  14.2146161883105 6.39086305141432  14.2146161883105 6.88646860086357  C 14.2766595748306 7.18492851216043  14.3972031418762 7.46986771736121  14.5700667445148 7.72667767593364  C 14.8469883443294 7.97901187368739  15.0475729439133 8.2963379510723  15.1511781697499 8.64599954548898  C 14.8220321378124 8.59649441108275  14.5213727870847 8.44070461975126  14.3006578575379 8.20529353836831  L 14.297147317313 8.20529353836831  Z M 12.7293734865712 5.0425307173699  C 12.4423450310368 2.77649511400651  9.95283707209145 1.00101871070373  6.94076012537644 1.00101871070373  C 3.73189232376621 1.00101871070373  1.12108684162006 3.01380198469813  1.12108684162006 5.48922414968563  C 1.17246795453275 6.87915055726863  1.95112341283356 8.15479149583324  3.20014578083707 8.89526551018862  C 3.40277777648086 9.03600539366581  3.61478801538017 9.16433724835532  3.83486817036445 9.27946913112643  L 3.57675987954029 10.2506294977653  C 3.66983934607584 10.2918481933187  3.76011038043144 10.3357139610636  3.85531288796017 10.3736080599955  L 5.15860930489828 9.75940852965685  C 5.34901431995575 9.8059371259753  5.5493157150759 9.83584273918642  5.74817946038965 9.86774941292326  C 5.87512728166677 9.88902052874782  6.00207510294389 9.91095341262026  6.13255018130416 9.92557533520188  C 6.94530041268851 10.0221549407168  7.7699473997503 9.97754731124333  8.56563874377727 9.79396227558518  C 8.59026022384831 10.1263275379057  8.65460390622303 10.4550115275642  8.75744797492471 10.7737728959927  C 8.16192093293692 10.9053557627885  7.55241292777515 10.9724811699112  6.94074340851822 10.9738474358003  C 6.39200107013897 10.9709288806218  5.84507522735367 10.9141196931812  5.30882699280929 10.8043402772517  L 2.94411038043144 11.9171032497538  C 2.76024719424081 12.005748006908  2.53821882939317 11.9838614969714  2.37779337471575 11.8612783880009  C 2.21673706431678 11.7396677968942  2.14542786852442 11.5408735614075  2.19514498186958 11.3520951443072  L 2.61828209698236 9.74612589955306  C 1.06768134314628 8.81669273116571  0.109724262590085 7.22067899556251  0.063210620121689 5.48922414968563  C 0.063210620121689 2.45942943716385  3.14228873455842 0.0039390955230659  6.94074340851822 0.0039390955230659  C 10.5473387007559 0.0039390955230659  13.500906643722 2.22012150594652  13.7886372073013 5.0372208166048  C 13.6229866475955 5.01319148674481  13.4560737948238 4.99765908343511  13.2886359781206 4.99069222028634  C 13.1017415032881 4.99734141352928  12.9148470284555 5.01394864025453  12.729356769713 5.04186894932202  Z M 9.58401405514471 9.47821391420623  C 9.58401405514471 8.98391273180055  10.0081151672254 8.58268740881955  10.5325442812366 8.58084690553746  C 10.8492117263844 8.52101992273313  11.1503492102514 8.40669161427165  11.4211623133182 8.24184834482236  C 11.6870989090666 7.97953908575193  12.022632974025 7.78904794148901  12.3929801487309 7.69012286947958  C 12.3425067497403 8.00147708853763  12.1789979158641 8.28668468809461  11.9303410976584 8.49710173471707  C 11.7222997971852 8.79622089235664  11.5727842173192 9.1285860162109  11.4881634810399 9.47689659874252  C 11.4881641649256 9.47733570360145  11.4881645068686 9.47777480887418  11.4881645068686 9.47821391420623  C 11.4881645068686 9.97381946365548  11.0619059089419 10.375587143507  10.5360892810067 10.375587143507  C 10.0102726530714 10.375587143507  9.58401405514471 9.97381946365548  9.58401405514471 9.47821391420623  Z M 12.247693933993 10.7451908188774  L 12.247693933993 10.7398651617302  C 12.5622383381476 10.938616165442  12.9120385962756 11.0822040754488  13.2801772478643 11.1652874782213  C 13.8059938757996 11.1652874782213  14.2322524737263 11.5670551580729  14.2322524737263 12.0626607075222  C 14.2322524737263 12.5582662569714  13.8059938757996 12.960033936823  13.2801772478643 12.960033936823  C 12.754360619929 12.960033936823  12.3281020220023 12.5582662569714  12.3281020220023 12.0626607075222  C 12.2674217898261 11.7638351711198  12.147811925141 11.4783889165276  11.9754766148362 11.2211280963563  C 11.6995960174333 10.9676400892448  11.5004503638579 10.6493760976893  11.3985778378711 10.2991591546095  C 11.7280294631427 10.3502576643695  12.0282872884461 10.5079799100568  12.247693933993 10.7451908188774  Z " fill-rule="nonzero" fill="#28a2ec" stroke="none" transform="matrix(1 0 0 1 539 315 )" />
  </g>
</svg>