<?xml version="1.0" encoding="utf-8"?>
<svg version="1.1" xmlns:xlink="http://www.w3.org/1999/xlink" width="320px" height="32px" xmlns="http://www.w3.org/2000/svg">
  <defs>
    <mask fill="white" id="clip11">
      <path d="M 0 30.4390243902439  L 0 1.5609756097561  C 0 0.686829268292679  1.75999999999999 0  4 0  L 109.588235294118 0  L 316 0  C 318.24 0  320 0.686829268292679  320 1.5609756097561  L 320 30.4390243902439  C 320 31.3131707317073  318.24 32  316 32  L 4 32  C 1.75999999999999 32  0 31.3131707317073  0 30.4390243902439  Z " fill-rule="evenodd" />
    </mask>
  </defs>
  <g transform="matrix(1 0 0 1 -1055 -2626 )">
    <path d="M 0 30.4390243902439  L 0 1.5609756097561  C 0 0.686829268292679  1.75999999999999 0  4 0  L 109.588235294118 0  L 316 0  C 318.24 0  320 0.686829268292679  320 1.5609756097561  L 320 30.4390243902439  C 320 31.3131707317073  318.24 32  316 32  L 4 32  C 1.75999999999999 32  0 31.3131707317073  0 30.4390243902439  Z " fill-rule="nonzero" fill="#ffffff" stroke="none" transform="matrix(1 0 0 1 1055 2626 )" />
    <path d="M 0 30.4390243902439  L 0 1.5609756097561  C 0 0.686829268292679  1.75999999999999 0  4 0  L 109.588235294118 0  L 316 0  C 318.24 0  320 0.686829268292679  320 1.5609756097561  L 320 30.4390243902439  C 320 31.3131707317073  318.24 32  316 32  L 4 32  C 1.75999999999999 32  0 31.3131707317073  0 30.4390243902439  Z " stroke-width="2" stroke="#d9d9d9" fill="none" transform="matrix(1 0 0 1 1055 2626 )" mask="url(#clip11)" />
  </g>
</svg>